<mxfile host="app.diagrams.net" agent="Mozilla/5.0 (X11; Linux x86_64) AppleWebKit/537.36 (KHTML, like Gecko) Chrome/136.0.0.0 Safari/537.36" version="27.1.6">
  <diagram name="Страница — 1" id="IUHHUsOvhiQDS1XtrzDv">
    <mxGraphModel dx="1277" dy="788" grid="1" gridSize="10" guides="1" tooltips="1" connect="1" arrows="1" fold="1" page="1" pageScale="1" pageWidth="827" pageHeight="1169" math="0" shadow="0">
      <root>
        <mxCell id="0" />
        <mxCell id="1" parent="0" />
        <mxCell id="rKUKzOrpES-ChgZa8PtO-1" value="ALU" style="shape=trapezoid;perimeter=trapezoidPerimeter;whiteSpace=wrap;html=1;fixedSize=1;horizontal=1;direction=west;" parent="1" vertex="1">
          <mxGeometry x="290" y="440" width="200" height="50" as="geometry" />
        </mxCell>
        <mxCell id="rKUKzOrpES-ChgZa8PtO-3" value="" style="endArrow=classic;html=1;rounded=0;entryX=0.86;entryY=1;entryDx=0;entryDy=0;exitX=0.5;exitY=1;exitDx=0;exitDy=0;entryPerimeter=0;" parent="1" source="rKUKzOrpES-ChgZa8PtO-52" target="rKUKzOrpES-ChgZa8PtO-1" edge="1">
          <mxGeometry width="50" height="50" relative="1" as="geometry">
            <mxPoint x="470" y="390" as="sourcePoint" />
            <mxPoint x="440" y="380" as="targetPoint" />
            <Array as="points">
              <mxPoint x="185" y="340" />
              <mxPoint x="318" y="340" />
            </Array>
          </mxGeometry>
        </mxCell>
        <mxCell id="rKUKzOrpES-ChgZa8PtO-5" value="ACC" style="rounded=0;whiteSpace=wrap;html=1;" parent="1" vertex="1">
          <mxGeometry x="335" y="580" width="110" height="40" as="geometry" />
        </mxCell>
        <mxCell id="rKUKzOrpES-ChgZa8PtO-6" value="" style="endArrow=classic;html=1;rounded=0;exitX=0.5;exitY=0;exitDx=0;exitDy=0;entryX=0.5;entryY=0;entryDx=0;entryDy=0;" parent="1" source="rKUKzOrpES-ChgZa8PtO-1" target="rKUKzOrpES-ChgZa8PtO-5" edge="1">
          <mxGeometry width="50" height="50" relative="1" as="geometry">
            <mxPoint x="500" y="440" as="sourcePoint" />
            <mxPoint x="500" y="483" as="targetPoint" />
          </mxGeometry>
        </mxCell>
        <mxCell id="rKUKzOrpES-ChgZa8PtO-7" value="" style="rounded=0;whiteSpace=wrap;html=1;dashed=1;" parent="1" vertex="1">
          <mxGeometry x="680" y="355" width="520" height="290" as="geometry" />
        </mxCell>
        <mxCell id="rKUKzOrpES-ChgZa8PtO-8" value="0x80" style="rounded=0;whiteSpace=wrap;html=1;" parent="1" vertex="1">
          <mxGeometry x="800" y="355" width="60" height="40" as="geometry" />
        </mxCell>
        <mxCell id="rKUKzOrpES-ChgZa8PtO-9" value="0x84" style="rounded=0;whiteSpace=wrap;html=1;" parent="1" vertex="1">
          <mxGeometry x="720" y="605" width="60" height="40" as="geometry" />
        </mxCell>
        <mxCell id="rKUKzOrpES-ChgZa8PtO-10" value="" style="endArrow=classic;html=1;rounded=0;exitX=0.5;exitY=1;exitDx=0;exitDy=0;entryX=0.5;entryY=0;entryDx=0;entryDy=0;" parent="1" source="rKUKzOrpES-ChgZa8PtO-9" target="rKUKzOrpES-ChgZa8PtO-12" edge="1">
          <mxGeometry width="50" height="50" relative="1" as="geometry">
            <mxPoint x="1050" y="505" as="sourcePoint" />
            <mxPoint x="1040" y="475" as="targetPoint" />
          </mxGeometry>
        </mxCell>
        <mxCell id="rKUKzOrpES-ChgZa8PtO-11" value="" style="endArrow=classic;html=1;rounded=0;exitX=0.5;exitY=1;exitDx=0;exitDy=0;entryX=0.5;entryY=0;entryDx=0;entryDy=0;" parent="1" source="rKUKzOrpES-ChgZa8PtO-13" target="rKUKzOrpES-ChgZa8PtO-8" edge="1">
          <mxGeometry width="50" height="50" relative="1" as="geometry">
            <mxPoint x="1040" y="525" as="sourcePoint" />
            <mxPoint x="830" y="315" as="targetPoint" />
          </mxGeometry>
        </mxCell>
        <mxCell id="rKUKzOrpES-ChgZa8PtO-12" value="OUT" style="rounded=0;whiteSpace=wrap;html=1;" parent="1" vertex="1">
          <mxGeometry x="720" y="675" width="60" height="40" as="geometry" />
        </mxCell>
        <mxCell id="rKUKzOrpES-ChgZa8PtO-13" value="IN" style="rounded=0;whiteSpace=wrap;html=1;" parent="1" vertex="1">
          <mxGeometry x="800" y="290" width="60" height="40" as="geometry" />
        </mxCell>
        <mxCell id="rKUKzOrpES-ChgZa8PtO-21" value="operation" style="text;html=1;align=center;verticalAlign=middle;whiteSpace=wrap;rounded=0;" parent="1" vertex="1">
          <mxGeometry x="230" y="460" width="60" height="30" as="geometry" />
        </mxCell>
        <mxCell id="rKUKzOrpES-ChgZa8PtO-22" value="" style="endArrow=classic;html=1;rounded=0;entryX=1;entryY=0.5;entryDx=0;entryDy=0;dashed=1;" parent="1" target="rKUKzOrpES-ChgZa8PtO-1" edge="1">
          <mxGeometry width="50" height="50" relative="1" as="geometry">
            <mxPoint x="260" y="465" as="sourcePoint" />
            <mxPoint x="650" y="500" as="targetPoint" />
          </mxGeometry>
        </mxCell>
        <mxCell id="rKUKzOrpES-ChgZa8PtO-23" value="Address decoder" style="rounded=0;whiteSpace=wrap;html=1;" parent="1" vertex="1">
          <mxGeometry x="720" y="365" width="60" height="195" as="geometry" />
        </mxCell>
        <mxCell id="rKUKzOrpES-ChgZa8PtO-27" value="" style="endArrow=classic;html=1;rounded=0;entryX=0.5;entryY=0;entryDx=0;entryDy=0;exitX=0.5;exitY=1;exitDx=0;exitDy=0;" parent="1" source="rKUKzOrpES-ChgZa8PtO-23" target="rKUKzOrpES-ChgZa8PtO-9" edge="1">
          <mxGeometry width="50" height="50" relative="1" as="geometry">
            <mxPoint x="900" y="525" as="sourcePoint" />
            <mxPoint x="680" y="485" as="targetPoint" />
          </mxGeometry>
        </mxCell>
        <mxCell id="rKUKzOrpES-ChgZa8PtO-28" value="addr" style="text;html=1;align=center;verticalAlign=middle;whiteSpace=wrap;rounded=0;" parent="1" vertex="1">
          <mxGeometry x="670" y="435" width="60" height="30" as="geometry" />
        </mxCell>
        <mxCell id="rKUKzOrpES-ChgZa8PtO-29" value="data in" style="text;html=1;align=center;verticalAlign=middle;whiteSpace=wrap;rounded=0;" parent="1" vertex="1">
          <mxGeometry x="1020" y="616" width="60" height="30" as="geometry" />
        </mxCell>
        <mxCell id="rKUKzOrpES-ChgZa8PtO-30" value="AR" style="rounded=0;whiteSpace=wrap;html=1;" parent="1" vertex="1">
          <mxGeometry x="600" y="580" width="60" height="40" as="geometry" />
        </mxCell>
        <mxCell id="rKUKzOrpES-ChgZa8PtO-35" style="edgeStyle=orthogonalEdgeStyle;rounded=0;orthogonalLoop=1;jettySize=auto;html=1;exitX=0.5;exitY=0;exitDx=0;exitDy=0;entryX=0;entryY=0.5;entryDx=0;entryDy=0;" parent="1" source="rKUKzOrpES-ChgZa8PtO-31" target="rKUKzOrpES-ChgZa8PtO-30" edge="1">
          <mxGeometry relative="1" as="geometry">
            <mxPoint x="630" y="720" as="targetPoint" />
          </mxGeometry>
        </mxCell>
        <mxCell id="rKUKzOrpES-ChgZa8PtO-31" value="MUX" style="shape=trapezoid;perimeter=trapezoidPerimeter;whiteSpace=wrap;html=1;fixedSize=1;direction=south;" parent="1" vertex="1">
          <mxGeometry x="545" y="560" width="30" height="80" as="geometry" />
        </mxCell>
        <mxCell id="rKUKzOrpES-ChgZa8PtO-33" value="" style="endArrow=classic;html=1;rounded=0;exitX=0.5;exitY=0;exitDx=0;exitDy=0;entryX=0.21;entryY=0.98;entryDx=0;entryDy=0;entryPerimeter=0;" parent="1" source="rKUKzOrpES-ChgZa8PtO-38" target="rKUKzOrpES-ChgZa8PtO-1" edge="1">
          <mxGeometry width="50" height="50" relative="1" as="geometry">
            <mxPoint x="610" y="290" as="sourcePoint" />
            <mxPoint x="530" y="420" as="targetPoint" />
          </mxGeometry>
        </mxCell>
        <mxCell id="rKUKzOrpES-ChgZa8PtO-34" value="" style="endArrow=classic;html=1;rounded=0;entryX=0.5;entryY=1;entryDx=0;entryDy=0;exitX=1;exitY=0.5;exitDx=0;exitDy=0;" parent="1" source="rKUKzOrpES-ChgZa8PtO-5" target="rKUKzOrpES-ChgZa8PtO-31" edge="1">
          <mxGeometry width="50" height="50" relative="1" as="geometry">
            <mxPoint x="520" y="600" as="sourcePoint" />
            <mxPoint x="650" y="500" as="targetPoint" />
            <Array as="points" />
          </mxGeometry>
        </mxCell>
        <mxCell id="rKUKzOrpES-ChgZa8PtO-38" value="MUX" style="shape=trapezoid;perimeter=trapezoidPerimeter;whiteSpace=wrap;html=1;fixedSize=1;direction=west;" parent="1" vertex="1">
          <mxGeometry x="400" y="360" width="90" height="30" as="geometry" />
        </mxCell>
        <mxCell id="rKUKzOrpES-ChgZa8PtO-40" value="sel" style="text;html=1;align=center;verticalAlign=middle;whiteSpace=wrap;rounded=0;" parent="1" vertex="1">
          <mxGeometry x="545" y="646" width="60" height="30" as="geometry" />
        </mxCell>
        <mxCell id="rKUKzOrpES-ChgZa8PtO-41" value="" style="endArrow=classic;html=1;rounded=0;entryX=1;entryY=0.5;entryDx=0;entryDy=0;dashed=1;exitX=0.25;exitY=1;exitDx=0;exitDy=0;" parent="1" source="rKUKzOrpES-ChgZa8PtO-40" target="rKUKzOrpES-ChgZa8PtO-31" edge="1">
          <mxGeometry width="50" height="50" relative="1" as="geometry">
            <mxPoint x="545" y="690" as="sourcePoint" />
            <mxPoint x="650" y="500" as="targetPoint" />
          </mxGeometry>
        </mxCell>
        <mxCell id="rKUKzOrpES-ChgZa8PtO-42" value="" style="endArrow=classic;html=1;rounded=0;entryX=1;entryY=0.5;entryDx=0;entryDy=0;dashed=1;" parent="1" target="rKUKzOrpES-ChgZa8PtO-38" edge="1">
          <mxGeometry width="50" height="50" relative="1" as="geometry">
            <mxPoint x="370" y="375" as="sourcePoint" />
            <mxPoint x="320" y="380.25" as="targetPoint" />
          </mxGeometry>
        </mxCell>
        <mxCell id="rKUKzOrpES-ChgZa8PtO-43" value="sel" style="text;html=1;align=center;verticalAlign=middle;whiteSpace=wrap;rounded=0;" parent="1" vertex="1">
          <mxGeometry x="350" y="350" width="60" height="30" as="geometry" />
        </mxCell>
        <mxCell id="rKUKzOrpES-ChgZa8PtO-44" value="PC" style="rounded=0;whiteSpace=wrap;html=1;" parent="1" vertex="1">
          <mxGeometry x="325" y="260" width="75" height="30" as="geometry" />
        </mxCell>
        <mxCell id="rKUKzOrpES-ChgZa8PtO-45" value="" style="endArrow=classic;html=1;rounded=0;entryX=0.75;entryY=1;entryDx=0;entryDy=0;exitX=0.5;exitY=1;exitDx=0;exitDy=0;" parent="1" source="rKUKzOrpES-ChgZa8PtO-44" target="rKUKzOrpES-ChgZa8PtO-38" edge="1">
          <mxGeometry width="50" height="50" relative="1" as="geometry">
            <mxPoint x="430" y="330" as="sourcePoint" />
            <mxPoint x="650" y="500" as="targetPoint" />
            <Array as="points">
              <mxPoint x="363" y="320" />
              <mxPoint x="423" y="320" />
            </Array>
          </mxGeometry>
        </mxCell>
        <mxCell id="rKUKzOrpES-ChgZa8PtO-47" value="" style="endArrow=classic;html=1;rounded=0;exitX=0.5;exitY=0;exitDx=0;exitDy=0;entryX=0;entryY=0.5;entryDx=0;entryDy=0;" parent="1" source="rKUKzOrpES-ChgZa8PtO-30" target="rKUKzOrpES-ChgZa8PtO-23" edge="1">
          <mxGeometry width="50" height="50" relative="1" as="geometry">
            <mxPoint x="755" y="720" as="sourcePoint" />
            <mxPoint x="782" y="420" as="targetPoint" />
            <Array as="points">
              <mxPoint x="630" y="463" />
            </Array>
          </mxGeometry>
        </mxCell>
        <mxCell id="rKUKzOrpES-ChgZa8PtO-48" value="" style="endArrow=classic;html=1;rounded=0;exitX=1;exitY=0.5;exitDx=0;exitDy=0;entryX=0;entryY=0.33;entryDx=0;entryDy=0;entryPerimeter=0;" parent="1" source="rKUKzOrpES-ChgZa8PtO-23" target="rKUKzOrpES-ChgZa8PtO-24" edge="1">
          <mxGeometry width="50" height="50" relative="1" as="geometry">
            <mxPoint x="784" y="453" as="sourcePoint" />
            <mxPoint x="920" y="345" as="targetPoint" />
            <Array as="points" />
          </mxGeometry>
        </mxCell>
        <mxCell id="rKUKzOrpES-ChgZa8PtO-24" value="MEMORY" style="rounded=0;whiteSpace=wrap;html=1;" parent="1" vertex="1">
          <mxGeometry x="900" y="395" width="243" height="200" as="geometry" />
        </mxCell>
        <mxCell id="rKUKzOrpES-ChgZa8PtO-51" value="" style="endArrow=classic;html=1;rounded=0;exitX=1;exitY=0.25;exitDx=0;exitDy=0;entryX=0.5;entryY=1;entryDx=0;entryDy=0;" parent="1" source="rKUKzOrpES-ChgZa8PtO-23" target="rKUKzOrpES-ChgZa8PtO-8" edge="1">
          <mxGeometry width="50" height="50" relative="1" as="geometry">
            <mxPoint x="820" y="575" as="sourcePoint" />
            <mxPoint x="830" y="405" as="targetPoint" />
            <Array as="points">
              <mxPoint x="830" y="414" />
            </Array>
          </mxGeometry>
        </mxCell>
        <mxCell id="rKUKzOrpES-ChgZa8PtO-52" value="DR" style="rounded=0;whiteSpace=wrap;html=1;" parent="1" vertex="1">
          <mxGeometry x="140" y="180" width="90" height="35" as="geometry" />
        </mxCell>
        <mxCell id="rKUKzOrpES-ChgZa8PtO-53" value="Control Unit" style="rounded=0;whiteSpace=wrap;html=1;" parent="1" vertex="1">
          <mxGeometry x="144" y="606" width="170" height="40" as="geometry" />
        </mxCell>
        <mxCell id="rKUKzOrpES-ChgZa8PtO-54" value="&amp;amp;&amp;amp; 0xFF" style="rounded=0;whiteSpace=wrap;html=1;" parent="1" vertex="1">
          <mxGeometry x="144" y="520" width="86" height="40" as="geometry" />
        </mxCell>
        <mxCell id="rKUKzOrpES-ChgZa8PtO-55" value="" style="endArrow=classic;html=1;rounded=0;entryX=0.5;entryY=0;entryDx=0;entryDy=0;" parent="1" target="rKUKzOrpES-ChgZa8PtO-54" edge="1">
          <mxGeometry width="50" height="50" relative="1" as="geometry">
            <mxPoint x="185" y="340" as="sourcePoint" />
            <mxPoint x="505" y="130" as="targetPoint" />
            <Array as="points" />
          </mxGeometry>
        </mxCell>
        <mxCell id="rKUKzOrpES-ChgZa8PtO-56" value="" style="endArrow=classic;html=1;rounded=0;exitX=0.5;exitY=1;exitDx=0;exitDy=0;entryX=0.25;entryY=0;entryDx=0;entryDy=0;" parent="1" source="rKUKzOrpES-ChgZa8PtO-54" target="rKUKzOrpES-ChgZa8PtO-53" edge="1">
          <mxGeometry width="50" height="50" relative="1" as="geometry">
            <mxPoint x="595" y="340" as="sourcePoint" />
            <mxPoint x="645" y="290" as="targetPoint" />
          </mxGeometry>
        </mxCell>
        <mxCell id="rKUKzOrpES-ChgZa8PtO-57" value="" style="endArrow=classic;html=1;rounded=0;exitX=0.5;exitY=0;exitDx=0;exitDy=0;entryX=1;entryY=0.5;entryDx=0;entryDy=0;" parent="1" source="rKUKzOrpES-ChgZa8PtO-24" target="rKUKzOrpES-ChgZa8PtO-52" edge="1">
          <mxGeometry width="50" height="50" relative="1" as="geometry">
            <mxPoint x="600" y="430" as="sourcePoint" />
            <mxPoint x="650" y="380" as="targetPoint" />
            <Array as="points">
              <mxPoint x="1020" y="200" />
            </Array>
          </mxGeometry>
        </mxCell>
        <mxCell id="rKUKzOrpES-ChgZa8PtO-58" value="" style="endArrow=classic;html=1;rounded=0;entryX=1;entryY=0.5;entryDx=0;entryDy=0;" parent="1" target="rKUKzOrpES-ChgZa8PtO-9" edge="1">
          <mxGeometry width="50" height="50" relative="1" as="geometry">
            <mxPoint x="1020" y="625" as="sourcePoint" />
            <mxPoint x="695" y="635" as="targetPoint" />
            <Array as="points" />
          </mxGeometry>
        </mxCell>
        <mxCell id="rKUKzOrpES-ChgZa8PtO-62" value="" style="endArrow=none;html=1;rounded=0;exitX=1;exitY=0.5;exitDx=0;exitDy=0;" parent="1" source="rKUKzOrpES-ChgZa8PtO-8" edge="1">
          <mxGeometry width="50" height="50" relative="1" as="geometry">
            <mxPoint x="630" y="415" as="sourcePoint" />
            <mxPoint x="1020" y="375" as="targetPoint" />
          </mxGeometry>
        </mxCell>
        <mxCell id="rKUKzOrpES-ChgZa8PtO-63" value="data out" style="text;html=1;align=center;verticalAlign=middle;whiteSpace=wrap;rounded=0;" parent="1" vertex="1">
          <mxGeometry x="1020" y="349" width="60" height="30" as="geometry" />
        </mxCell>
        <mxCell id="rKUKzOrpES-ChgZa8PtO-65" value="" style="endArrow=classic;html=1;rounded=0;exitX=0.5;exitY=1;exitDx=0;exitDy=0;dashed=1;" parent="1" source="rKUKzOrpES-ChgZa8PtO-53" edge="1">
          <mxGeometry width="50" height="50" relative="1" as="geometry">
            <mxPoint x="595" y="340" as="sourcePoint" />
            <mxPoint x="230" y="710" as="targetPoint" />
          </mxGeometry>
        </mxCell>
        <mxCell id="rKUKzOrpES-ChgZa8PtO-66" value="signals" style="text;html=1;align=center;verticalAlign=middle;whiteSpace=wrap;rounded=0;" parent="1" vertex="1">
          <mxGeometry x="230" y="660" width="60" height="30" as="geometry" />
        </mxCell>
        <mxCell id="rKUKzOrpES-ChgZa8PtO-70" value="" style="endArrow=classic;html=1;rounded=0;entryX=1;entryY=0.5;entryDx=0;entryDy=0;" parent="1" edge="1">
          <mxGeometry width="50" height="50" relative="1" as="geometry">
            <mxPoint x="500" y="600" as="sourcePoint" />
            <mxPoint x="460" y="305" as="targetPoint" />
            <Array as="points">
              <mxPoint x="500" y="305" />
            </Array>
          </mxGeometry>
        </mxCell>
        <mxCell id="rKUKzOrpES-ChgZa8PtO-71" value="" style="endArrow=classic;html=1;rounded=0;entryX=0.25;entryY=1;entryDx=0;entryDy=0;" parent="1" target="rKUKzOrpES-ChgZa8PtO-38" edge="1">
          <mxGeometry width="50" height="50" relative="1" as="geometry">
            <mxPoint x="500" y="340" as="sourcePoint" />
            <mxPoint x="650" y="380" as="targetPoint" />
            <Array as="points">
              <mxPoint x="468" y="340" />
            </Array>
          </mxGeometry>
        </mxCell>
        <mxCell id="rKUKzOrpES-ChgZa8PtO-73" value="" style="endArrow=classic;html=1;rounded=0;exitX=0.5;exitY=0;exitDx=0;exitDy=0;entryX=0.25;entryY=1;entryDx=0;entryDy=0;" parent="1" source="rKUKzOrpES-ChgZa8PtO-44" target="rKUKzOrpES-ChgZa8PtO-31" edge="1">
          <mxGeometry width="50" height="50" relative="1" as="geometry">
            <mxPoint x="600" y="430" as="sourcePoint" />
            <mxPoint x="650" y="380" as="targetPoint" />
            <Array as="points">
              <mxPoint x="363" y="220" />
              <mxPoint x="520" y="220" />
              <mxPoint x="520" y="580" />
            </Array>
          </mxGeometry>
        </mxCell>
        <mxCell id="rKUKzOrpES-ChgZa8PtO-74" value="MUX" style="shape=trapezoid;perimeter=trapezoidPerimeter;whiteSpace=wrap;html=1;fixedSize=1;direction=north;" parent="1" vertex="1">
          <mxGeometry x="430" y="230" width="30" height="90" as="geometry" />
        </mxCell>
        <mxCell id="rKUKzOrpES-ChgZa8PtO-75" value="" style="endArrow=classic;html=1;rounded=0;exitX=0.5;exitY=0;exitDx=0;exitDy=0;entryX=1;entryY=0.5;entryDx=0;entryDy=0;" parent="1" source="rKUKzOrpES-ChgZa8PtO-74" target="rKUKzOrpES-ChgZa8PtO-44" edge="1">
          <mxGeometry width="50" height="50" relative="1" as="geometry">
            <mxPoint x="570" y="400" as="sourcePoint" />
            <mxPoint x="650" y="380" as="targetPoint" />
          </mxGeometry>
        </mxCell>
        <mxCell id="rKUKzOrpES-ChgZa8PtO-76" value="sel" style="text;html=1;align=center;verticalAlign=middle;whiteSpace=wrap;rounded=0;" parent="1" vertex="1">
          <mxGeometry x="430" y="310" width="60" height="30" as="geometry" />
        </mxCell>
        <mxCell id="rKUKzOrpES-ChgZa8PtO-77" value="" style="endArrow=classic;html=1;rounded=0;entryX=0.25;entryY=0;entryDx=0;entryDy=0;dashed=1;exitX=0.25;exitY=1;exitDx=0;exitDy=0;" parent="1" source="rKUKzOrpES-ChgZa8PtO-76" target="rKUKzOrpES-ChgZa8PtO-76" edge="1">
          <mxGeometry width="50" height="50" relative="1" as="geometry">
            <mxPoint x="620" y="706" as="sourcePoint" />
            <mxPoint x="620" y="660" as="targetPoint" />
          </mxGeometry>
        </mxCell>
        <mxCell id="rKUKzOrpES-ChgZa8PtO-78" value="" style="endArrow=classic;html=1;rounded=0;dashed=1;dashPattern=1 4;" parent="1" edge="1">
          <mxGeometry width="50" height="50" relative="1" as="geometry">
            <mxPoint x="500" y="289" as="sourcePoint" />
            <mxPoint x="460" y="289" as="targetPoint" />
          </mxGeometry>
        </mxCell>
        <mxCell id="rKUKzOrpES-ChgZa8PtO-79" value="+1" style="text;html=1;align=center;verticalAlign=middle;whiteSpace=wrap;rounded=0;" parent="1" vertex="1">
          <mxGeometry x="460" y="268" width="60" height="30" as="geometry" />
        </mxCell>
        <mxCell id="rKUKzOrpES-ChgZa8PtO-80" value="" style="endArrow=classic;html=1;rounded=0;dashed=1;dashPattern=1 4;" parent="1" edge="1">
          <mxGeometry width="50" height="50" relative="1" as="geometry">
            <mxPoint x="500" y="264.5" as="sourcePoint" />
            <mxPoint x="460" y="264.5" as="targetPoint" />
          </mxGeometry>
        </mxCell>
        <mxCell id="rKUKzOrpES-ChgZa8PtO-81" value="" style="endArrow=classic;html=1;rounded=0;dashed=1;dashPattern=1 4;" parent="1" edge="1">
          <mxGeometry width="50" height="50" relative="1" as="geometry">
            <mxPoint x="500" y="240" as="sourcePoint" />
            <mxPoint x="460" y="240" as="targetPoint" />
          </mxGeometry>
        </mxCell>
        <mxCell id="rKUKzOrpES-ChgZa8PtO-82" value="+2" style="text;html=1;align=center;verticalAlign=middle;whiteSpace=wrap;rounded=0;" parent="1" vertex="1">
          <mxGeometry x="461" y="241" width="60" height="30" as="geometry" />
        </mxCell>
        <mxCell id="rKUKzOrpES-ChgZa8PtO-83" value="+4" style="text;html=1;align=center;verticalAlign=middle;whiteSpace=wrap;rounded=0;" parent="1" vertex="1">
          <mxGeometry x="461" y="218" width="60" height="30" as="geometry" />
        </mxCell>
        <mxCell id="rKUKzOrpES-ChgZa8PtO-84" value="NZVC" style="rounded=0;whiteSpace=wrap;html=1;" parent="1" vertex="1">
          <mxGeometry x="236" y="520" width="70" height="40" as="geometry" />
        </mxCell>
        <mxCell id="rKUKzOrpES-ChgZa8PtO-85" value="" style="endArrow=classic;html=1;rounded=0;exitX=0.5;exitY=1;exitDx=0;exitDy=0;entryX=0.75;entryY=0;entryDx=0;entryDy=0;" parent="1" source="rKUKzOrpES-ChgZa8PtO-84" target="rKUKzOrpES-ChgZa8PtO-53" edge="1">
          <mxGeometry width="50" height="50" relative="1" as="geometry">
            <mxPoint x="600" y="430" as="sourcePoint" />
            <mxPoint x="650" y="380" as="targetPoint" />
          </mxGeometry>
        </mxCell>
        <mxCell id="rKUKzOrpES-ChgZa8PtO-86" value="" style="endArrow=classic;html=1;rounded=0;exitX=0.75;exitY=0;exitDx=0;exitDy=0;entryX=1;entryY=0.5;entryDx=0;entryDy=0;" parent="1" source="rKUKzOrpES-ChgZa8PtO-1" target="rKUKzOrpES-ChgZa8PtO-84" edge="1">
          <mxGeometry width="50" height="50" relative="1" as="geometry">
            <mxPoint x="340" y="500" as="sourcePoint" />
            <mxPoint x="650" y="380" as="targetPoint" />
            <Array as="points">
              <mxPoint x="340" y="540" />
            </Array>
          </mxGeometry>
        </mxCell>
        <mxCell id="rKUKzOrpES-ChgZa8PtO-88" value="" style="endArrow=classic;html=1;rounded=0;exitX=0.5;exitY=1;exitDx=0;exitDy=0;entryX=0.5;entryY=1;entryDx=0;entryDy=0;" parent="1" source="rKUKzOrpES-ChgZa8PtO-5" target="rKUKzOrpES-ChgZa8PtO-24" edge="1">
          <mxGeometry width="50" height="50" relative="1" as="geometry">
            <mxPoint x="418" y="620" as="sourcePoint" />
            <mxPoint x="790" y="730" as="targetPoint" />
            <Array as="points">
              <mxPoint x="390" y="730" />
              <mxPoint x="1020" y="730" />
            </Array>
          </mxGeometry>
        </mxCell>
        <mxCell id="ibTH_hqeDoK_c4HMzKib-1" value="2 или 4 байта" style="text;html=1;align=center;verticalAlign=middle;whiteSpace=wrap;rounded=0;" parent="1" vertex="1">
          <mxGeometry x="260" y="360" width="60" height="30" as="geometry" />
        </mxCell>
        <mxCell id="Jn-iCF24AOD1M022zszM-3" value="latch_left" style="text;html=1;align=center;verticalAlign=middle;whiteSpace=wrap;rounded=0;" vertex="1" parent="1">
          <mxGeometry x="241" y="410" width="60" height="30" as="geometry" />
        </mxCell>
        <mxCell id="Jn-iCF24AOD1M022zszM-4" value="" style="endArrow=classic;html=1;rounded=0;entryX=1;entryY=0.5;entryDx=0;entryDy=0;dashed=1;" edge="1" parent="1">
          <mxGeometry width="50" height="50" relative="1" as="geometry">
            <mxPoint x="250" y="440" as="sourcePoint" />
            <mxPoint x="290" y="440" as="targetPoint" />
          </mxGeometry>
        </mxCell>
        <mxCell id="Jn-iCF24AOD1M022zszM-5" value="" style="endArrow=classic;html=1;rounded=0;dashed=1;" edge="1" parent="1">
          <mxGeometry width="50" height="50" relative="1" as="geometry">
            <mxPoint x="520" y="440" as="sourcePoint" />
            <mxPoint x="490" y="440" as="targetPoint" />
          </mxGeometry>
        </mxCell>
        <mxCell id="Jn-iCF24AOD1M022zszM-6" value="latch_right" style="text;html=1;align=center;verticalAlign=middle;whiteSpace=wrap;rounded=0;" vertex="1" parent="1">
          <mxGeometry x="500" y="411" width="60" height="30" as="geometry" />
        </mxCell>
        <mxCell id="Jn-iCF24AOD1M022zszM-7" value="latch_ar" style="text;html=1;align=center;verticalAlign=middle;whiteSpace=wrap;rounded=0;" vertex="1" parent="1">
          <mxGeometry x="560" y="525" width="60" height="30" as="geometry" />
        </mxCell>
        <mxCell id="Jn-iCF24AOD1M022zszM-8" value="" style="endArrow=classic;html=1;rounded=0;exitX=0.5;exitY=1;exitDx=0;exitDy=0;dashed=1;" edge="1" parent="1">
          <mxGeometry width="50" height="50" relative="1" as="geometry">
            <mxPoint x="620" y="516" as="sourcePoint" />
            <mxPoint x="621" y="580" as="targetPoint" />
          </mxGeometry>
        </mxCell>
        <mxCell id="Jn-iCF24AOD1M022zszM-9" value="" style="endArrow=classic;html=1;rounded=0;entryX=1;entryY=0.5;entryDx=0;entryDy=0;dashed=1;exitX=0.25;exitY=1;exitDx=0;exitDy=0;" edge="1" parent="1">
          <mxGeometry width="50" height="50" relative="1" as="geometry">
            <mxPoint x="413.5" y="666" as="sourcePoint" />
            <mxPoint x="413.5" y="620" as="targetPoint" />
          </mxGeometry>
        </mxCell>
        <mxCell id="Jn-iCF24AOD1M022zszM-10" value="latch_acc" style="text;html=1;align=center;verticalAlign=middle;whiteSpace=wrap;rounded=0;" vertex="1" parent="1">
          <mxGeometry x="414" y="630" width="60" height="30" as="geometry" />
        </mxCell>
        <mxCell id="Jn-iCF24AOD1M022zszM-11" value="opcode" style="text;html=1;align=center;verticalAlign=middle;whiteSpace=wrap;rounded=0;" vertex="1" parent="1">
          <mxGeometry x="130" y="570" width="60" height="30" as="geometry" />
        </mxCell>
      </root>
    </mxGraphModel>
  </diagram>
</mxfile>
